<svg xmlns="http://www.w3.org/2000/svg" width="120" height="121" viewBox="0 0 120 121" fill="none">
    <path d="M26.2802 64.7923L19.1772 34.6935M49.7822 70.9213L94.9288 25.3719M79.2569 101.45L55.6125 95.1723M56.8569 88.8945C56.8569 102.763 45.7138 114.006 31.968 114.006C18.2223 114.006 7.07913 102.763 7.07913 88.8945C7.07913 75.0263 18.2223 63.7834 31.968 63.7834C45.7138 63.7834 56.8569 75.0263 56.8569 88.8945ZM28.8569 22.9779C28.8569 29.9121 23.2853 35.5334 16.4125 35.5334C9.53958 35.5334 3.96802 29.9121 3.96802 22.9779C3.96802 16.0436 9.53958 10.4223 16.4125 10.4223C23.2853 10.4223 28.8569 16.0436 28.8569 22.9779ZM115.968 16.7001C115.968 23.6343 110.397 29.2556 103.524 29.2556C96.6505 29.2556 91.0791 23.6343 91.0791 16.7001C91.0791 9.76584 96.6505 4.14453 103.524 4.14453C110.397 4.14453 115.968 9.76584 115.968 16.7001ZM103.524 104.589C103.524 111.523 97.9522 117.145 91.0791 117.145C84.2061 117.145 78.6347 111.523 78.6347 104.589C78.6347 97.6545 84.2061 92.0334 91.0791 92.0334C97.9522 92.0334 103.524 97.6545 103.524 104.589Z" stroke="#684DE3" stroke-width="7" stroke-linecap="round"/>
</svg>
